HIERARCHY
ROOT Hips
{
	OFFSET 0.000000 97.167313 0.000000
	CHANNELS 6 Xposition Yposition Zposition Xrotation Yrotation Zrotation
	JOINT Spine
	{
		OFFSET 0.000000 13.784798 0.064400
		CHANNELS 3 Xrotation Yrotation Zrotation
		JOINT Spine1
		{
			OFFSET 0.000000 12.037903 0.404700
			CHANNELS 3 Xrotation Yrotation Zrotation
			JOINT Spine2
			{
				OFFSET 0.000000 17.795601 0.420200
				CHANNELS 3 Xrotation Yrotation Zrotation
				JOINT Neck
				{
					OFFSET 0.000000 39.131302 11.954600
					CHANNELS 3 Xrotation Yrotation Zrotation
					JOINT Head
					{
						OFFSET 0.000000 14.456192 15.627699
						CHANNELS 3 Xrotation Yrotation Zrotation
						JOINT HeadTop_End
						{
							OFFSET 0.000000 15.703506 7.603401
							CHANNELS 3 Xrotation Yrotation Zrotation
							End Site
							{
								OFFSET 0.000000 17.447403 0.000000
							}
						}
					}
				}
				JOINT LeftShoulder
				{
					OFFSET 17.399500 24.608795 1.168800
					CHANNELS 3 Xrotation Yrotation Zrotation
					JOINT LeftArm
					{
						OFFSET 18.980635 5.765305 1.818600
						CHANNELS 3 Xrotation Yrotation Zrotation
						JOINT LeftForeArm
						{
							OFFSET 49.290169 0.000000 0.000000
							CHANNELS 3 Xrotation Yrotation Zrotation
							JOINT LeftHand
							{
								OFFSET 31.562012 0.000000 0.000000
								CHANNELS 3 Xrotation Yrotation Zrotation
								JOINT LeftHandThumb1
								{
									OFFSET 6.133995 -4.388519 7.076070
									CHANNELS 3 Xrotation Yrotation Zrotation
									JOINT LeftHandThumb2
									{
										OFFSET 6.037666 -3.485840 3.485847
										CHANNELS 3 Xrotation Yrotation Zrotation
										JOINT LeftHandThumb3
										{
											OFFSET 6.496506 -3.750763 3.750761
											CHANNELS 3 Xrotation Yrotation Zrotation
											JOINT LeftHandThumb4
											{
												OFFSET 5.616882 -3.242905 3.242910
												CHANNELS 3 Xrotation Yrotation Zrotation
												End Site
												{
													OFFSET -1.254608 7.132141 0.375429
												}
											}
										}
									}
								}
								JOINT LeftHandPinky1
								{
									OFFSET 18.920792 -0.453171 -11.426712
									CHANNELS 3 Xrotation Yrotation Zrotation
									JOINT LeftHandPinky2
									{
										OFFSET 4.919586 0.000000 0.000000
										CHANNELS 3 Xrotation Yrotation Zrotation
										JOINT LeftHandPinky3
										{
											OFFSET 5.233047 0.000000 0.000000
											CHANNELS 3 Xrotation Yrotation Zrotation
											JOINT LeftHandPinky4
											{
												OFFSET 5.571716 0.000000 0.000000
												CHANNELS 3 Xrotation Yrotation Zrotation
												End Site
												{
													OFFSET -3.459808 4.342407 -0.466164
												}
											}
										}
									}
								}
								JOINT LeftHandRing1
								{
									OFFSET 22.726120 -0.094986 -6.500475
									CHANNELS 3 Xrotation Yrotation Zrotation
									JOINT LeftHandRing2
									{
										OFFSET 6.408615 0.000000 0.000000
										CHANNELS 3 Xrotation Yrotation Zrotation
										JOINT LeftHandRing3
										{
											OFFSET 6.150223 0.000000 0.000000
											CHANNELS 3 Xrotation Yrotation Zrotation
											JOINT LeftHandRing4
											{
												OFFSET 6.145386 0.000000 0.000000
												CHANNELS 3 Xrotation Yrotation Zrotation
												End Site
												{
													OFFSET -3.671402 4.923981 -0.202372
												}
											}
										}
									}
								}
								JOINT LeftHandMiddle1
								{
									OFFSET 23.373947 0.000000 0.000001
									CHANNELS 3 Xrotation Yrotation Zrotation
									JOINT LeftHandMiddle2
									{
										OFFSET 6.996567 0.000000 0.000000
										CHANNELS 3 Xrotation Yrotation Zrotation
										JOINT LeftHandMiddle3
										{
											OFFSET 7.015945 0.000000 0.000000
											CHANNELS 3 Xrotation Yrotation Zrotation
											JOINT LeftHandMiddle4
											{
												OFFSET 7.721573 0.000000 0.000000
												CHANNELS 3 Xrotation Yrotation Zrotation
												End Site
												{
													OFFSET -4.651108 6.158463 0.251582
												}
											}
										}
									}
								}
								JOINT LeftHandIndex1
								{
									OFFSET 21.310577 -0.490082 6.209344
									CHANNELS 3 Xrotation Yrotation Zrotation
									JOINT LeftHandIndex2
									{
										OFFSET 7.536453 0.000000 0.000000
										CHANNELS 3 Xrotation Yrotation Zrotation
										JOINT LeftHandIndex3
										{
											OFFSET 7.512344 0.000000 0.000000
											CHANNELS 3 Xrotation Yrotation Zrotation
											JOINT LeftHandIndex4
											{
												OFFSET 10.212402 0.000000 0.000001
												CHANNELS 3 Xrotation Yrotation Zrotation
												End Site
												{
													OFFSET -5.180801 8.690506 1.388433
												}
											}
										}
									}
								}
							}
						}
					}
				}
				JOINT RightShoulder
				{
					OFFSET -17.399500 24.608795 1.168800
					CHANNELS 3 Xrotation Yrotation Zrotation
					JOINT RightArm
					{
						OFFSET -18.980635 5.765305 1.818600
						CHANNELS 3 Xrotation Yrotation Zrotation
						JOINT RightForeArm
						{
							OFFSET -49.290169 0.000000 0.000000
							CHANNELS 3 Xrotation Yrotation Zrotation
							JOINT RightHand
							{
								OFFSET -31.562012 0.000000 0.000000
								CHANNELS 3 Xrotation Yrotation Zrotation
								JOINT RightHandThumb1
								{
									OFFSET -6.133995 -4.388519 7.076070
									CHANNELS 3 Xrotation Yrotation Zrotation
									JOINT RightHandThumb2
									{
										OFFSET -6.037666 -3.485840 3.485847
										CHANNELS 3 Xrotation Yrotation Zrotation
										JOINT RightHandThumb3
										{
											OFFSET -6.496506 -3.750763 3.750761
											CHANNELS 3 Xrotation Yrotation Zrotation
											JOINT RightHandThumb4
											{
												OFFSET -5.616882 -3.242905 3.242910
												CHANNELS 3 Xrotation Yrotation Zrotation
												End Site
												{
													OFFSET 1.254608 7.132141 0.375429
												}
											}
										}
									}
								}
								JOINT RightHandIndex1
								{
									OFFSET -21.310577 -0.490082 6.209344
									CHANNELS 3 Xrotation Yrotation Zrotation
									JOINT RightHandIndex2
									{
										OFFSET -7.536453 0.000000 0.000000
										CHANNELS 3 Xrotation Yrotation Zrotation
										JOINT RightHandIndex3
										{
											OFFSET -7.512344 0.000000 0.000000
											CHANNELS 3 Xrotation Yrotation Zrotation
											JOINT RightHandIndex4
											{
												OFFSET -10.212402 0.000000 0.000001
												CHANNELS 3 Xrotation Yrotation Zrotation
												End Site
												{
													OFFSET 5.180801 8.690506 1.388433
												}
											}
										}
									}
								}
								JOINT RightHandMiddle1
								{
									OFFSET -23.373947 0.000000 0.000001
									CHANNELS 3 Xrotation Yrotation Zrotation
									JOINT RightHandMiddle2
									{
										OFFSET -6.996567 0.000000 0.000000
										CHANNELS 3 Xrotation Yrotation Zrotation
										JOINT RightHandMiddle3
										{
											OFFSET -7.015945 0.000000 0.000000
											CHANNELS 3 Xrotation Yrotation Zrotation
											JOINT RightHandMiddle4
											{
												OFFSET -7.721573 0.000000 0.000000
												CHANNELS 3 Xrotation Yrotation Zrotation
												End Site
												{
													OFFSET 4.651108 6.158463 0.251582
												}
											}
										}
									}
								}
								JOINT RightHandRing1
								{
									OFFSET -22.726120 -0.094986 -6.500475
									CHANNELS 3 Xrotation Yrotation Zrotation
									JOINT RightHandRing2
									{
										OFFSET -6.408615 0.000000 0.000000
										CHANNELS 3 Xrotation Yrotation Zrotation
										JOINT RightHandRing3
										{
											OFFSET -6.150223 0.000000 0.000000
											CHANNELS 3 Xrotation Yrotation Zrotation
											JOINT RightHandRing4
											{
												OFFSET -6.145386 0.000000 0.000000
												CHANNELS 3 Xrotation Yrotation Zrotation
												End Site
												{
													OFFSET 3.671402 4.923981 -0.202372
												}
											}
										}
									}
								}
								JOINT RightHandPinky1
								{
									OFFSET -18.920792 -0.453171 -11.426712
									CHANNELS 3 Xrotation Yrotation Zrotation
									JOINT RightHandPinky2
									{
										OFFSET -4.919586 0.000000 0.000000
										CHANNELS 3 Xrotation Yrotation Zrotation
										JOINT RightHandPinky3
										{
											OFFSET -5.233047 0.000000 0.000000
											CHANNELS 3 Xrotation Yrotation Zrotation
											JOINT RightHandPinky4
											{
												OFFSET -5.571716 0.000000 0.000000
												CHANNELS 3 Xrotation Yrotation Zrotation
												End Site
												{
													OFFSET 3.459808 4.342407 -0.466164
												}
											}
										}
									}
								}
							}
						}
					}
				}
			}
		}
	}
	JOINT LeftUpLeg
	{
		OFFSET 19.899099 -7.885101 -3.429500
		CHANNELS 3 Xrotation Yrotation Zrotation
		JOINT LeftLeg
		{
			OFFSET 1.745560 -36.997807 10.304700
			CHANNELS 3 Xrotation Yrotation Zrotation
			JOINT LeftFoot
			{
				OFFSET -1.745558 -29.803308 -13.615400
				CHANNELS 3 Xrotation Yrotation Zrotation
				JOINT LeftToeBase
				{
					OFFSET 1.181900 -18.539904 15.226099
					CHANNELS 3 Xrotation Yrotation Zrotation
					JOINT LeftToe_End
					{
						OFFSET -0.863701 1.402801 16.534700
						CHANNELS 3 Xrotation Yrotation Zrotation
						End Site
						{
							OFFSET 0.000000 16.616566 0.000000
						}
					}
				}
			}
		}
	}
	JOINT RightUpLeg
	{
		OFFSET -19.899099 -7.885101 -3.429500
		CHANNELS 3 Xrotation Yrotation Zrotation
		JOINT RightLeg
		{
			OFFSET -1.745560 -36.997807 10.304700
			CHANNELS 3 Xrotation Yrotation Zrotation
			JOINT RightFoot
			{
				OFFSET 1.745558 -29.803308 -13.615400
				CHANNELS 3 Xrotation Yrotation Zrotation
				JOINT RightToeBase
				{
					OFFSET -1.181900 -18.539904 15.226099
					CHANNELS 3 Xrotation Yrotation Zrotation
					JOINT RightToe_End
					{
						OFFSET 0.863701 1.402801 16.534700
						CHANNELS 3 Xrotation Yrotation Zrotation
						End Site
						{
							OFFSET 0.000000 16.616566 0.000000
						}
					}
				}
			}
		}
	}
}
MOTION
Frames: 4
Frame Time: 0.033333
-3.291226 71.767265 2.096142 11.715294 -49.552257 11.573095 10.987010 2.848391 -2.325937 6.100705 5.566534 -4.284687 -5.786911 6.328122 -3.046183 2.318757 9.363323 -0.265374 -4.146899 23.161933 -3.523314 -0.000000 0.000000 0.000000 -1.875352 -16.181681 -2.870473 -10.644666 2.164699 -45.510643 -22.862375 -25.786228 -15.871671 2.491040 -2.511886 6.860466 18.457985 -9.513784 13.216599 -1.150193 11.255328 -8.400829 5.706521 8.483113 -0.820736 0.000004 -0.000002 0.000001 2.010402 6.305979 -22.386510 -0.815375 -0.210791 -16.746476 -2.232632 0.018998 -34.673824 0.000000 0.000001 -0.000000 3.024630 7.938935 -14.103483 -0.708028 -0.566217 -18.895720 -0.726367 -0.705047 -22.058432 0.000001 -0.000002 0.000003 1.884758 4.663377 -4.597372 0.476686 -1.009840 -12.986438 0.628537 -1.346630 -16.554019 -0.000001 0.000001 0.000004 -1.232768 -5.771914 -0.192292 0.133954 -0.197658 -4.602135 0.055730 -0.448195 -7.568204 -0.000002 0.000001 -0.000001 -5.074910 24.346201 1.483192 6.642497 -34.736211 57.610337 -21.031990 44.833819 19.961685 -0.087242 35.608512 7.474311 55.149536 18.649575 -29.698274 -0.442525 -14.180544 7.313146 21.666965 -29.244527 9.142366 -0.000001 -0.000001 0.000001 5.673396 7.585011 36.844161 1.050469 3.824536 68.900209 0.499565 3.026045 62.196474 0.000000 -0.000001 -0.000001 -0.125702 1.886077 45.000739 -1.168988 3.204687 68.417650 -0.936421 1.813641 41.107562 -0.000000 -0.000000 -0.000004 -5.312008 1.216627 58.508821 -0.745240 1.667566 48.011295 -0.816459 1.840618 53.666552 -0.000000 0.000001 -0.000003 -7.756837 -9.376467 47.264011 -0.526041 1.541586 45.600529 -0.508184 0.803432 24.986630 -0.000001 0.000002 -0.000003 -67.366217 23.100571 46.058455 44.372440 -22.217970 2.151749 7.292952 2.062672 -14.543549 -0.694764 -6.107057 1.234332 0.000000 0.000001 -0.000000 -26.334527 0.642773 -35.035978 51.313886 9.953554 -3.035055 -31.274562 -8.054317 28.067727 0.528320 2.970060 1.471374 0.000000 0.000000 0.000000 
-3.637688 71.943481 2.301801 12.813145 -51.314754 12.530694 11.136548 2.627038 -2.328415 6.424566 5.034594 -4.093390 -5.486825 5.751711 -3.003959 1.660174 10.464112 -0.857530 -4.423021 23.548170 -3.764518 -0.000001 0.000000 -0.000001 -1.806752 -16.275759 -3.034146 -11.524291 -1.404771 -45.995952 -11.780978 -28.367143 -11.669066 -3.687283 -4.148700 7.935023 18.649898 -9.715637 12.744267 -1.175675 11.151577 -8.439789 5.186308 7.701116 -0.714034 0.000001 0.000003 0.000000 2.300277 6.102633 -22.840755 -0.839791 -0.173014 -15.876462 -2.291378 0.053523 -35.016860 0.000004 0.000000 -0.000006 3.010022 7.860083 -15.629076 -0.719692 -0.534555 -18.029348 -0.741698 -0.684158 -21.472592 -0.000003 -0.000001 0.000005 1.876556 4.546267 -6.899030 0.483177 -0.979565 -12.207466 0.675913 -1.338633 -16.197508 0.000003 -0.000003 0.000001 -1.232538 -5.787024 -0.319665 0.034166 -0.173013 -4.300860 -0.005787 -0.431779 -7.213222 -0.000003 0.000000 -0.000002 -4.996554 23.449296 2.062779 4.093901 -33.019146 55.400423 -19.193276 45.261017 19.067255 -0.570636 34.451573 7.040570 55.149533 18.649570 -29.698274 -0.442527 -14.180542 7.313148 21.666965 -29.244531 9.142368 -0.000000 0.000000 0.000002 5.673395 7.585004 36.844161 1.050469 3.824534 68.900209 0.499568 3.026041 62.196474 -0.000003 -0.000003 -0.000002 -0.125701 1.886075 45.000739 -1.168988 3.204689 68.417650 -0.936425 1.813638 41.107562 0.000002 -0.000000 -0.000004 -5.312003 1.216624 58.508814 -0.745240 1.667567 48.011295 -0.816458 1.840620 53.666552 -0.000000 0.000000 -0.000005 -7.756830 -9.376467 47.264004 -0.526042 1.541586 45.600525 -0.508186 0.803435 24.986632 -0.000001 -0.000001 -0.000001 -66.278202 23.357266 47.184309 44.491637 -21.830821 2.228762 5.891808 2.815336 -15.598069 -0.691190 -6.106995 1.240929 0.000000 -0.000001 -0.000000 -27.821206 1.185533 -34.521685 50.950551 10.758925 -3.223269 -30.516643 -7.257376 27.629662 0.528338 2.970077 1.471336 -0.000000 0.000003 0.000000 
-3.942594 72.088196 2.520076 13.934879 -52.688264 13.435609 11.272554 2.326877 -2.215560 6.717548 4.453201 -3.849073 -5.196953 5.129332 -2.881423 1.008318 11.792647 -1.461708 -4.971642 24.168254 -3.893136 0.000001 0.000000 -0.000001 -1.823759 -16.741390 -3.254818 -12.574599 -4.758184 -47.039506 1.168256 -31.277188 -6.120026 -10.678956 -5.295838 7.809180 18.898604 -9.980850 12.131392 -1.243515 10.874889 -8.543511 3.813670 5.609067 -0.464988 0.000001 -0.000000 0.000002 3.071860 5.560472 -24.042747 -0.907123 -0.071793 -13.556321 -2.448200 0.145793 -35.931300 0.000002 0.000001 0.000001 2.985999 7.758474 -17.612756 -0.753294 -0.449293 -15.718980 -0.783587 -0.628145 -19.910427 0.000001 -0.000002 0.000001 1.859461 4.394835 -9.892334 0.491963 -0.937219 -11.071745 0.801896 -1.317250 -15.246861 -0.000001 -0.000001 0.000002 -1.232552 -5.815339 -0.713976 -0.232110 -0.129249 -3.587325 -0.169662 -0.382517 -6.126039 -0.000003 0.000003 -0.000006 -4.904294 23.005269 2.596815 1.612389 -31.444965 53.212344 -17.075053 45.537797 18.000216 -1.470556 33.118136 6.579701 55.149536 18.649570 -29.698274 -0.442526 -14.180546 7.313146 21.666967 -29.244534 9.142369 -0.000001 -0.000001 0.000002 5.673398 7.585004 36.844158 1.050470 3.824532 68.900209 0.499565 3.026038 62.196474 -0.000002 0.000002 0.000004 -0.125697 1.886076 45.000739 -1.168986 3.204687 68.417643 -0.936422 1.813641 41.107558 -0.000001 0.000000 0.000003 -5.312006 1.216627 58.508821 -0.745239 1.667568 48.011295 -0.816459 1.840618 53.666552 -0.000003 0.000001 -0.000005 -7.756835 -9.376467 47.264004 -0.526040 1.541585 45.600529 -0.508188 0.803439 24.986630 -0.000001 0.000003 -0.000001 -65.397197 23.526937 47.895438 44.674375 -21.540755 2.504007 4.679469 3.622024 -16.580006 -0.689045 -6.106931 1.244778 0.000000 0.000002 0.000000 -29.036288 1.510873 -34.078860 50.519163 11.406873 -3.276851 -29.874520 -6.565364 27.271849 0.528391 2.970089 1.471357 -0.000000 -0.000000 -0.000000 
-4.170171 72.202148 2.739202 15.144285 -53.586218 14.429741 11.402704 1.938938 -2.015253 6.994617 3.786497 -3.588079 -4.904990 4.431884 -2.726378 0.151554 13.344572 -1.818908 -5.505663 25.044840 -3.924432 0.000001 0.000000 -0.000000 -1.850440 -17.574073 -3.206155 -13.559291 -8.142251 -48.127999 16.413385 -34.992415 1.418723 -18.546894 -5.017778 5.742665 19.186211 -10.292478 11.421524 -1.340713 10.476911 -8.692380 1.871325 2.587068 -0.195131 0.000002 0.000001 -0.000005 4.177896 4.781629 -25.746784 -1.009968 0.075201 -10.221125 -2.674308 0.278908 -37.244677 0.000000 -0.000001 -0.000002 2.946138 7.641873 -19.915891 -0.807663 -0.325057 -12.397888 -0.846622 -0.546607 -17.664877 -0.000001 0.000002 0.000002 1.825757 4.220669 -13.368926 0.501391 -0.891061 -9.691826 0.981925 -1.286267 -13.880223 -0.000001 -0.000001 0.000008 -1.234430 -5.856538 -1.393197 -0.610509 -0.100176 -2.747627 -0.406599 -0.311550 -4.563114 -0.000001 0.000001 0.000001 -4.824473 22.736716 3.185970 -0.813819 -29.361361 50.728904 -15.061732 45.505463 17.026185 -2.711883 31.754178 6.196205 55.149529 18.649569 -29.698281 -0.442524 -14.180540 7.313147 21.666967 -29.244531 9.142370 -0.000001 -0.000001 -0.000000 5.673397 7.585009 36.844158 1.050471 3.824535 68.900209 0.499567 3.026044 62.196468 -0.000000 -0.000003 -0.000002 -0.125699 1.886077 45.000742 -1.168988 3.204689 68.417650 -0.936423 1.813639 41.107562 0.000003 -0.000002 -0.000001 -5.312004 1.216623 58.508814 -0.745240 1.667574 48.011298 -0.816460 1.840621 53.666552 -0.000001 -0.000001 -0.000003 -7.756834 -9.376470 47.264004 -0.526040 1.541588 45.600525 -0.508183 0.803439 24.986628 -0.000001 0.000003 -0.000001 -64.809049 23.678138 48.054496 44.873202 -21.432934 2.940079 3.721235 4.563899 -17.390034 -0.688274 -6.106931 1.246082 0.000000 0.000001 0.000000 -30.103973 1.648700 -33.896101 50.057449 11.883333 -3.194847 -29.333006 -5.945258 27.039455 0.528329 2.970005 1.471366 0.000000 0.000005 -0.000000 
